<?xml version="1.0" encoding="iso-8859-1"?>
<!-- Generator: Adobe Illustrator 19.0.0, SVG Export Plug-In . SVG Version: 6.00 Build 0)  -->
<svg version="1.1" id="Layer_1" xmlns="http://www.w3.org/2000/svg" xmlns:xlink="http://www.w3.org/1999/xlink" x="0px" y="0px"
	 viewBox="0 0 511.67 511.67" style="enable-background:new 0 0 511.67 511.67;" xml:space="preserve">
<polygon style="fill:#F6BB42;" points="399.649,255.835 468.589,138.566 330.693,138.566 255.476,10.648 180.258,138.566 
	42.347,138.566 111.303,255.835 42.347,373.072 180.258,373.072 255.476,500.99 330.693,373.072 468.589,373.072 "/>
<g>
	<path style="fill:#FFCE54;" d="M373.089,255.835c0,64.74-52.498,117.237-117.254,117.237c-64.755,0-117.253-52.497-117.253-117.237
		c0-64.771,52.498-117.269,117.253-117.269C320.591,138.566,373.089,191.064,373.089,255.835z"/>
	<path style="fill:#FFCE54;" d="M223.856,31.979C223.856,14.302,238.175,0,255.835,0s31.979,14.303,31.979,31.979
		c0,17.645-14.319,31.979-31.979,31.979C238.174,63.958,223.856,49.623,223.856,31.979z"/>
	<path style="fill:#FFCE54;" d="M223.856,479.691c0-17.676,14.319-31.979,31.979-31.979s31.979,14.304,31.979,31.979
		c0,17.646-14.319,31.979-31.979,31.979C238.174,511.671,223.856,497.337,223.856,479.691z"/>
	<path style="fill:#FFCE54;" d="M426.397,149.216c0-17.646,14.319-31.979,31.98-31.979c17.66,0,31.979,14.334,31.979,31.979
		c0,17.676-14.318,31.979-31.979,31.979C440.717,181.195,426.397,166.892,426.397,149.216z"/>
	<path style="fill:#FFCE54;" d="M21.314,138.566c0-17.677,14.319-31.979,31.979-31.979s31.979,14.303,31.979,31.979
		c0,17.645-14.319,31.979-31.979,31.979S21.314,156.211,21.314,138.566z"/>
</g>
<g style="opacity:0.2;">
	<path style="fill:#FFFFFF;" d="M31.979,127.917c0-5.902,4.778-10.681,10.665-10.681s10.649,4.778,10.649,10.681
		c0,5.871-4.763,10.649-10.649,10.649S31.979,133.788,31.979,127.917z"/>
</g>
<g style="opacity:0.2;">
	<path style="fill:#FFFFFF;" d="M234.521,21.298c0-5.872,4.763-10.649,10.649-10.649c5.887,0,10.665,4.778,10.665,10.649
		c0,5.902-4.778,10.681-10.665,10.681C239.283,31.979,234.521,27.2,234.521,21.298z"/>
</g>
<g style="opacity:0.2;">
	<path style="fill:#FFFFFF;" d="M437.048,138.566c0-5.902,4.777-10.649,10.664-10.649s10.666,4.747,10.666,10.649
		c0,5.871-4.779,10.649-10.666,10.649S437.048,144.438,437.048,138.566z"/>
</g>
<path style="fill:#FFCE54;" d="M426.397,362.423c0-17.676,14.319-31.979,31.98-31.979c17.66,0,31.979,14.304,31.979,31.979
	c0,17.645-14.318,31.979-31.979,31.979C440.717,394.402,426.397,380.067,426.397,362.423z"/>
<g style="opacity:0.2;">
	<path style="fill:#FFFFFF;" d="M437.048,351.773c0-5.902,4.777-10.681,10.664-10.681s10.666,4.778,10.666,10.681
		c0,5.871-4.779,10.649-10.666,10.649S437.048,357.645,437.048,351.773z"/>
</g>
<g style="opacity:0.2;">
	<path style="fill:#FFFFFF;" d="M234.146,469.011c0-5.871,4.778-10.649,10.665-10.649s10.665,4.778,10.665,10.649
		c0,5.902-4.778,10.681-10.665,10.681C238.924,479.691,234.146,474.913,234.146,469.011z"/>
</g>
<path style="fill:#FFCE54;" d="M21.314,362.423c0-17.676,14.319-31.979,31.979-31.979s31.979,14.304,31.979,31.979
	s-14.319,31.979-31.979,31.979S21.314,380.099,21.314,362.423z"/>
<g style="opacity:0.2;">
	<path style="fill:#FFFFFF;" d="M31.619,351.773c0-5.902,4.778-10.681,10.649-10.681c5.903,0,10.665,4.778,10.665,10.681
		c0,5.871-4.762,10.649-10.665,10.649C36.397,362.423,31.619,357.645,31.619,351.773z"/>
</g>
<path style="fill:#F6BB42;" d="M301.79,322.073l-45.955-24.172l-45.955,24.172l8.775-51.186l-37.179-36.227l51.373-7.464
	l22.986-46.563l22.985,46.564l51.374,7.464l-37.18,36.227L301.79,322.073z"/>
<g>
</g>
<g>
</g>
<g>
</g>
<g>
</g>
<g>
</g>
<g>
</g>
<g>
</g>
<g>
</g>
<g>
</g>
<g>
</g>
<g>
</g>
<g>
</g>
<g>
</g>
<g>
</g>
<g>
</g>
</svg>
